<svg xmlns="http://www.w3.org/2000/svg" width="450" height="183" viewBox="0 0 450 183"><g><g><path fill="#fff" d="M262.806 140.825h5.427v41.345a5.789 5.789 0 0 1-5.783-5.788v-26.048l-24.493 31.836h-5.431v-41.345h.058a5.785 5.785 0 0 1 5.785 5.788v26.105zm-112.544 3.098a5.777 5.777 0 0 1 5.12-3.098h2.348l-18.357 34.078c-1.457 2.718-3.167 4.746-5.137 6.084-1.966 1.338-4.11 2.009-6.434 2.009-1.808 0-3.658-.414-5.547-1.242.554-2.237 2.892-3.953 5.3-3.953l-.015.014c.047-.005.1-.016.146-.02 2.596-.004 4.74-1.374 6.432-4.133l.946-1.477-16.645-31.36h2.776a5.784 5.784 0 0 1 5.15 3.151l11.787 23.073 12.13-23.126m236.005 0a5.784 5.784 0 0 1 5.124-3.098h2.345l-18.356 34.078c-1.458 2.718-3.167 4.746-5.137 6.084-1.968 1.338-4.11 2.009-6.433 2.009-1.81 0-3.66-.414-5.55-1.242.556-2.237 2.895-3.953 5.3-3.953l-.014.014c.05-.005.099-.016.146-.02 2.595-.004 4.741-1.374 6.433-4.133l.945-1.477-16.647-31.36h2.78c2.17 0 4.16 1.219 5.15 3.151l11.788 23.073 12.126-23.126m-177.298-3.099a5.134 5.134 0 0 1-5.131 5.138h-9.035v36.207h-5.785v-36.207h-8.973a5.137 5.137 0 0 1-5.135-5.138zM89.55 167.107l-8.912-20.259-8.915 20.259zm-5.961-26.283l18.771 41.345h-2.426a5.784 5.784 0 0 1-5.293-3.457l-3.025-6.881H69.657l-3.024 6.883c-.925 2.1-3 3.455-5.294 3.455H59.03l18.714-41.345zm-53.956 5.789a5.788 5.788 0 0 1 5.785-5.789h.118v41.345h-.118a5.787 5.787 0 0 1-5.785-5.788v-12.64H5.902v12.64A5.786 5.786 0 0 1 .12 182.17H0v-41.345h.12a5.786 5.786 0 0 1 5.783 5.789v11.989h23.73v-11.99m271.958-5.787h29.102v41.345h-5.787v-36.209h-18.3l-.41 12.108c-.2 5.71-.662 10.336-1.389 13.88-.727 3.545-1.877 6.213-3.452 8.004-1.574 1.792-3.7 2.687-6.375 2.687a15.4 15.4 0 0 1-3.72-.47l.252-3.203c.083-1.051.977-1.823 2.033-1.82h.018c1.693 0 3.049-.68 4.074-2.037 1.022-1.359 1.79-3.395 2.302-6.113.509-2.718.845-6.3 1.004-10.75zm144.316 33.31c1.67 0 3.15.778 4.088 2.008-1.887 2.127-4.181 3.74-6.877 4.844-2.695 1.102-5.658 1.652-8.885 1.652-4.13 0-7.86-.914-11.184-2.742-3.325-1.835-5.93-4.353-7.822-7.563-1.888-3.21-2.832-6.821-2.832-10.838 0-4.017.943-7.626 2.832-10.838 1.891-3.209 4.505-5.728 7.85-7.56 3.347-1.832 7.086-2.748 11.216-2.748 3.225 0 6.178.543 8.855 1.628 2.676 1.081 4.96 2.685 6.847 4.812-.939 1.233-2.401 2.042-4.069 2.042a5.1 5.1 0 0 1-2.829-.851l.01-.002-.01-.005c-2.484-1.578-5.34-2.366-8.568-2.366-3.07 0-5.845.689-8.323 2.066-2.479 1.382-4.416 3.279-5.812 5.703-1.4 2.422-2.098 5.126-2.098 8.119 0 2.992.699 5.7 2.098 8.122 1.396 2.422 3.333 4.32 5.812 5.7 2.478 1.378 5.253 2.067 8.323 2.067 3.2 0 6.05-.8 8.547-2.398a5.114 5.114 0 0 1 2.831-.853M226.328 16.094s5.892 2.492 10.705 5.723c4.814 3.23 7.363 6.686 7.363 6.686s-1.548.983-3.021-.171c-1.472-1.15-5.512-5.363-13.417-8.857-2.1-.928-1.63-3.382-1.63-3.382m41.59 48.56c.059-.827.096-1.647.096-2.45 0-7.22-1.081-13.755-3.007-19.621a54.855 54.855 0 0 0-8.917-16.727c-.352-.447-.75-.78-1.14-.885a.851.851 0 0 0-.404-.006 28.724 28.724 0 0 1-.697 4.885c-.234 1-.542 1.998-.887 2.994l.016.024c-.168.493-.333.988-.53 1.481-.06.201-.136.386-.226.56-.48 1.904-.385 2.854.01 3.838a98.144 98.144 0 0 1 1.497 3.231c-.024.013-1.832.987-2.813-.958-.01-.021-.021-.03-.032-.051-1.121-2.394-2.462-4.585-3.783-6.468-.002-.005-.002-.01-.005-.013-1.4-2.11.275-3.414.313-3.443.653.847 1.31 1.786 1.958 2.762.007-.004.007-.011.014-.018 0 0 .595.819.995-.132.396-.978.716-1.966.998-2.958l.005.005a26.347 26.347 0 0 0 1.028-6.426 8.627 8.627 0 0 0-.74-2.707c-.506-1.101-1.131-1.846-1.534-2.222a61.393 61.393 0 0 0-6.706-5.45 66.006 66.006 0 0 0-7.58-4.599c-.529-.273-1.004-.433-1.382-.416a.767.767 0 0 0-.333.094c.315.933.6 1.886.824 2.871.174.768.322 1.552.438 2.348.067.463-.05.884-.334 1.25-.29.369-.676.577-1.14.617l-.48.047a29.69 29.69 0 0 0-.599-3.786 26.936 26.936 0 0 0-.954-3.215c-.433-.735-1.093-1.4-1.82-1.957-1.048-.8-2.2-1.372-3.024-1.661a73.361 73.361 0 0 0-11.079-2.935v9.168c0 .489.084 1.086.33 1.63.145.33.7.832 1.427.987.246.052 1.796.197 2.053.251.084.016.172.036.257.055.45.095.8.345 1.044.73.243.392.313.817.202 1.263l-.121.492c-.622-.15-1.231-.29-1.826-.415-.222-.048-2.62-.349-2.98.046-.428.472-.386 1.361-.386 1.944v7.096c0 .832.662 1.171 1.319 1.328 1.167.277 2.343.56 3.503.925.979.31 1.96.659 2.931 1.048.431.173.734.479.908.905.173.432.164.862-.024 1.283l-.204.462-.685-.302a39.324 39.324 0 0 0-3.572-1.323c-1.039-.324-1.136-.373-2.164-.604l-.016.007s-1.996-.308-1.996 2.292c0 .04.01.072.016.107-.002.02-.016.044-.016.062v9.84c1.782.377 3.686.95 5.591 1.744a26.133 26.133 0 0 0 3.065-2.623 28.919 28.919 0 0 0 3.39-4.084c.41-.599 1.16-1.243 1.953-1.64.148-.073.303-.142.456-.2a4.22 4.22 0 0 1-.11-1.126c.024-.808.253-1.52.485-2.047a31.723 31.723 0 0 0 1.199-3.153 1.635 1.635 0 0 1 1.982-1.08l.558.149a34.879 34.879 0 0 1-1.752 4.962c-.145.333-.293.773-.307 1.23-.013.39.082.818.362 1.233.905.7 1.794 1.44 2.648 2.245.956.9 1.866 1.86 2.716 2.878l-.44.37c-.669.56-1.66.497-2.251-.142a31.848 31.848 0 0 0-1.513-1.526 32.57 32.57 0 0 0-2.44-2.066c-.169.012-.39.095-.625.212-.475.237-.91.599-1.13.922a31.235 31.235 0 0 1-3.65 4.402 29.445 29.445 0 0 1-2.37 2.109c2.047 1.055 4.036 2.384 5.81 4.027.69.638 1.344 1.325 1.96 2.06 1.2-.306 2.403-.713 3.591-1.22a26.097 26.097 0 0 0 3.641-1.916c.563-.354 1.264-.471 1.979-.395l.297.044.053-.226c.211-.817.64-1.57 1.039-1.912l.003-.006a27.808 27.808 0 0 0 1.807-1.691c.61-.622 1.6-.657 2.255-.081l.426.38a31.923 31.923 0 0 1-3.077 3.042c-.108.098-.25.413-.354.812-.087.334-.12.687-.053.962a31.66 31.66 0 0 1 1.283 3.642c.384 1.338.689 2.743.912 4.208.303.312.542.488.775.544.343.083.85.02 1.632-.13a26.785 26.785 0 0 0 2.295-.54 26.78 26.78 0 0 0 2.257-.741l.514-.197c.61-.243 1.171-.546 1.574-.946.32-.324.546-.749.613-1.286a44.928 44.928 0 0 0-1.252-5.162l.479-.146c.44-.135.868-.091 1.27.133.406.222.672.564.791 1.01.164.616.32 1.24.462 1.872.126.569.243 1.143.352 1.717a.865.865 0 0 0 .392.185c.208.03.421-.039.597-.16a25.867 25.867 0 0 0 2.59-1.996 24.212 24.212 0 0 0 2.269-2.265l.36.311c.348.312.54.712.557 1.181.012.47-.148.88-.482 1.214a28.51 28.51 0 0 1-4.077 3.357c-.592.4-1.337.622-2.12.509a2.819 2.819 0 0 1-.435-.097 4.26 4.26 0 0 1-.833 1.154c-.644.65-1.46 1.1-2.314 1.437l-.541.208c-.827.309-1.643.575-2.436.798-.823.231-1.65.424-2.483.585-1.075.203-1.82.282-2.538.105a3.253 3.253 0 0 1-1.055-.47c-.109.093-.225.182-.347.261-.677.442-1.545.615-2.15.6a27.394 27.394 0 0 1-2.089-.139c-.114-.01-.227-.028-.341-.038a1.566 1.566 0 0 1-1.122-.655 1.598 1.598 0 0 1-.294-1.272l.088-.47c.625.117 1.255.209 1.89.276.644.069 1.286.113 1.925.13.26.007.63-.067.914-.252a.506.506 0 0 0 .185-.207 32.825 32.825 0 0 0-.872-4.033 31.31 31.31 0 0 0-1.102-3.172 2.33 2.33 0 0 0-.73-.227c-.243-.029-.456-.006-.581.072a28.585 28.585 0 0 1-3.95 2.077c-.997.428-2.01.79-3.032 1.088 2.158 3.227 3.552 7.25 3.628 12.208 1.947 1.607 4.26 2.919 6.84 3.838 2.68.962 5.647 1.492 8.76 1.492 3.099 0 6.045-.524 8.717-1.475-.342.122-2.346.838 0 0l.048-.017c2.633-.94 4.994-2.292 6.968-3.947zm-5.524 18.638c2.722-5.167 4.463-10.571 5.203-15.67a25.232 25.232 0 0 1-5.92 3.03 28.249 28.249 0 0 1-9.492 1.617c-3.366 0-6.578-.577-9.494-1.616a25.378 25.378 0 0 1-6.228-3.243 20.434 20.434 0 0 1-1.77 6.244c1.185 1.944 2.75 3.749 4.638 5.313a24.46 24.46 0 0 0 7.254 4.134c2.752 1 5.539 1.487 8.211 1.503 2.692.018 5.275-.442 7.598-1.312 0 0-2.721 5.166 0 0zm-9.12 12.413l.086-.086c2.924-2.922 5.415-6.172 7.48-9.576-1.924.49-3.961.742-6.05.728-2.923-.016-5.957-.544-8.946-1.63-2.99-1.09-5.65-2.637-7.897-4.498a23.873 23.873 0 0 1-4.431-4.818 20.252 20.252 0 0 1-2.754 3.52 19.61 19.61 0 0 1-1.563 1.422c.42 2.116 1.225 4.234 2.4 6.24 1.272 2.171 2.976 4.211 5.082 5.984a23.119 23.119 0 0 0 6.776 3.972c2.34.866 4.732 1.293 7.042 1.28a46.875 46.875 0 0 0 2.774-2.538zm0 0c-.458.458-2.485 2.483 0 0zm-19.228 11.352a43.618 43.618 0 0 0 13.876-6.791 22.81 22.81 0 0 1-5.22-1.272 25.21 25.21 0 0 1-7.414-4.337 25.222 25.222 0 0 1-5.557-6.552 22.515 22.515 0 0 1-2.44-5.958 18.602 18.602 0 0 1-6.278 2.508c-.382 2.102-.379 4.347.035 6.613.416 2.288 1.252 4.601 2.525 6.81a21.304 21.304 0 0 0 4.63 5.59c1.795 1.527 3.79 2.672 5.843 3.389 0 0-5.208 1.48 0 0zm-12.663 1.736c3.225 0 6.29-.319 9.198-.896a21.215 21.215 0 0 1-3.781-2.576 23.522 23.522 0 0 1-5.106-6.16 23.515 23.515 0 0 1-2.78-7.504c-.417-2.281-.463-4.547-.158-6.687a19.78 19.78 0 0 1-1.694.078 18.03 18.03 0 0 1-5.918-1.022 18.34 18.34 0 0 0-1.86 5.531 20.875 20.875 0 0 0 .045 7.107 20.855 20.855 0 0 0 2.383 6.686c1.162 2.04 2.641 3.79 4.324 5.146 1.725.186 3.503.297 5.347.297 0 0-3.226 0 0 0zm-22.612-6.155c3.893 2.456 8.428 4.297 13.563 5.297a20.964 20.964 0 0 1-2.507-3.513 23.08 23.08 0 0 1-2.64-7.385 23.083 23.083 0 0 1-.045-7.837 20.536 20.536 0 0 1 1.997-6.012 16.62 16.62 0 0 1-2.1-1.232l-.029.02-.037-.065a15.46 15.46 0 0 1-1.588-1.258 14.324 14.324 0 0 1-2.366-2.759c-1.547 1.314-2.91 2.96-3.992 4.862a20.82 20.82 0 0 0-2.384 6.69 20.861 20.861 0 0 0-.046 7.105c.379 2.226 1.127 4.29 2.174 6.087 0 0-3.892-2.455 0 0zm-5.235-3.998a38.39 38.39 0 0 0 1.736 1.489 21.02 21.02 0 0 1-.816-3.22 23.03 23.03 0 0 1 .046-7.836 22.952 22.952 0 0 1 2.64-7.386c1.29-2.27 2.939-4.219 4.817-5.74-.764-1.717-1.2-3.661-1.2-5.823v-.068a17.984 17.984 0 0 0-4.868 1.98 20.437 20.437 0 0 0-5.293 4.502 20.495 20.495 0 0 0-3.514 6.003c-.76 2.04-1.134 4.125-1.136 6.14a35.951 35.951 0 0 0 7.588 9.959s-.557-.51 0 0zm-9.34-13.897c.21-.99.49-1.98.85-2.96a22.596 22.596 0 0 1 3.886-6.638 22.652 22.652 0 0 1 5.866-4.982 19.925 19.925 0 0 1 6.2-2.382c.31-1.642.942-3.537 2.037-5.268a16.64 16.64 0 0 0-5.308-.814 18.87 18.87 0 0 0-6.357 1.166 18.907 18.907 0 0 0-5.617 3.198 16.576 16.576 0 0 0-3.643 4.206 22.85 22.85 0 0 0-.13 2.33c0 4.095.755 8.22 2.216 12.144 0 0-.209.99 0 0zm5.548-32.27c-3.556 4.075-5.688 8.918-6.796 13.22.447-.454.92-.889 1.421-1.304a21.17 21.17 0 0 1 6.26-3.568 21.22 21.22 0 0 1 7.091-1.29c2.368-.015 4.646.394 6.7 1.174.006-.005.01-.007.013-.014a10.857 10.857 0 0 1 2.685-2.1 13.589 13.589 0 0 0-2.886-3.297c-1.315-1.09-2.875-2-4.623-2.635a15.587 15.587 0 0 0-5.234-.957 13.472 13.472 0 0 0-4.631.772s3.556-4.075 0 0zm13.03-8.059c-4.06 1.065-7.407 2.907-10.13 5.202a16.79 16.79 0 0 1 1.74-.084c1.95.014 3.975.363 5.966 1.087a17.778 17.778 0 0 1 5.268 3.001 15.711 15.711 0 0 1 3.526 4.108c1.123-.35 2.38-.548 3.785-.548.347 0 .74.027 1.16.08-.086-1.2-.35-2.426-.8-3.627a14.883 14.883 0 0 0-2.56-4.381 14.93 14.93 0 0 0-3.865-3.286 12.93 12.93 0 0 0-4.09-1.552s4.062-1.063 0 0zm26.571 11.04l.005-.03c.25-1.357.245-2.7.01-3.955a19.658 19.658 0 0 0-1.237-1.249c-2.1-1.945-4.526-3.403-6.967-4.465.146.228.294.45.43.685.853 1.5 1.48 3.208 1.805 5.049.326 1.84.319 3.659.03 5.359a13.924 13.924 0 0 1-1.605 4.534 8.754 8.754 0 0 1 1.426 2.665 11.368 11.368 0 0 0 1.878-1.29 12.602 12.602 0 0 0 2.738-3.304 12.592 12.592 0 0 0 1.487-4zm2.875 11.42a10.29 10.29 0 0 0 2.172-2.896c-.18-3.724-1.198-6.838-2.737-9.419-.037.416-.093.835-.17 1.254a14.882 14.882 0 0 1-1.75 4.72 14.656 14.656 0 0 1-3.212 3.877 13.2 13.2 0 0 1-2.848 1.853c.026.305.047.614.047.937 0 .634-.123 1.694-.512 2.841.553.048 1.113.064 1.683.023 1.3-.086 2.635-.403 3.935-.972a11.874 11.874 0 0 0 3.392-2.217zm-1.341 8.991a18.474 18.474 0 0 0 3.318-7.91c-.164.168-.319.339-.49.501a13.998 13.998 0 0 1-4.011 2.625 14.042 14.042 0 0 1-4.657 1.152c-.968.065-1.922.008-2.843-.138a7.255 7.255 0 0 1-.866 1.057 7.046 7.046 0 0 1-1.755 1.276c.405.356.848.685 1.327.976a10.56 10.56 0 0 0 3.36 1.306 10.51 10.51 0 0 0 3.536.132c-.217.03-.825.115 0 0l.068-.01a9.122 9.122 0 0 0 3.013-.967zm-15.542 3.111c-.14-.21-.396-.596.07.107a8.998 8.998 0 0 0 2.13 2.26 7.787 7.787 0 0 0 2.553 1.269 16.646 16.646 0 0 0 7.836-3.604c-1.31.157-2.693.116-4.096-.173a12.741 12.741 0 0 1-4.051-1.578 11.593 11.593 0 0 1-2.535-2.079c-.505.081-1.04.132-1.623.132-.581 0-1.14-.075-1.676-.202.042.38.102.759.197 1.143.232.93.629 1.86 1.195 2.725zm-7.42-.435c.135.653.363 1.268.664 1.82 2.183 1.426 4.765 2.267 7.335 2.458a11.259 11.259 0 0 1-2.311-2.527 11.253 11.253 0 0 1-1.57-3.512 10.176 10.176 0 0 1-.303-2.592 7.25 7.25 0 0 1-.988-.745 6.714 6.714 0 0 1-1.153-1.351 6.57 6.57 0 0 0-.963 1.38 7.517 7.517 0 0 0-.78 2.45c.017-.125.11-.797 0 0l-.003.018a7.66 7.66 0 0 0 .072 2.601zm.862-15.606l-.017-.005a6.807 6.807 0 0 0-2.306-.192c-.374.035-.74.105-1.087.204-1.174 1.549-1.852 3.35-2.179 4.919a9.643 9.643 0 0 1 4.718-2.53 8.777 8.777 0 0 1 2-.178c.065-.076.13-.148.199-.218.333-.337.702-.61 1.086-.837-.104-.081-.206-.162-.319-.234a6.713 6.713 0 0 0-2.095-.93zm0 0c.696.177.11.028 0 0zm5.386.303c.422 0 .843.06 1.251.166a5.274 5.274 0 0 0-1.454-3.144 4.38 4.38 0 0 0-1.214-.894c-1.921.027-3.49.492-4.762 1.228.436.046.873.117 1.311.226a8.989 8.989 0 0 1 2.785 1.242c.537.359 1.01.777 1.43 1.227.23-.03.452-.05.653-.05 0 0-.423 0 0 0zm2.49 4.473c0-.682-.26-1.225-.66-1.6-.476-.452-1.152-.696-1.83-.696-.703 0-1.764.287-2.521 1.05-.52.523-.893 1.292-.893 2.394 0 1.078.551 2.165 1.447 2.972a5.109 5.109 0 0 0 3.423 1.303c1.982 0 3.304-.646 4.174-1.52 1.436-1.437 1.753-3.505 1.753-4.414 0-.42-.04-.812-.091-1.194a5.918 5.918 0 0 1-1.801 1.768 5.77 5.77 0 0 1-.856.434 3.769 3.769 0 0 1-1.054 2.207 3.888 3.888 0 0 1-2.727 1.16c-.662 0-1.696-.228-2.447-.939-.555-.526-.956-1.281-.956-2.339h2.174c0 .372.112.612.27.76.272.257.686.343.959.343.42 0 .86-.18 1.18-.506.274-.277.457-.68.457-1.183 0 0 0 .681 0 0zm.937-4.417c.037.453.03.9-.017 1.334.371.377.683.815.9 1.318.012-.005.022-.007.031-.016.352-.218.68-.506.952-.854.279-.347.483-.735.617-1.126.118-.355.169-.712.165-1.05a6.73 6.73 0 0 0-.945-1.07c-.819-.753-1.771-1.297-2.722-1.685a7.466 7.466 0 0 1 1.02 3.15s-.038-.453 0 0zm-11.957 14.484a9.771 9.771 0 0 1 1.072-5.31 8.661 8.661 0 0 1 1.986-2.536 5.361 5.361 0 0 1-.116-1.073c0-.535.065-1.02.173-1.469-.132.023-.266.04-.4.067a7.37 7.37 0 0 0-2.352.948 7.448 7.448 0 0 0-1.907 1.664 6.469 6.469 0 0 0-1.035 1.829 11.575 11.575 0 0 0 2.58 5.88s.054.693 0 0zm5.192-34.353c-1.297 0-2.535.074-3.729.204.29.146.58.3.861.464a17.033 17.033 0 0 1 4.433 3.763 16.958 16.958 0 0 1 2.933 5.021c.597 1.608.9 3.253.942 4.855 1.329.412 2.735 1.068 3.96 2.043.49-.998.855-2.105 1.054-3.285.248-1.46.251-3.027-.03-4.626a13.582 13.582 0 0 0-1.55-4.354 11.725 11.725 0 0 0-2.633-3.182c-2.33-.623-4.507-.903-6.241-.903 0 0 1.297 0 0 0zm56.237-1.531l.006.02c1.998 6.08 3.12 12.839 3.12 20.29 0 11.131-5.24 24.9-15.304 34.953-8.11 8.104-19.351 13.812-33.503 13.812-12.396 0-22.291-4.263-29.317-10.731-7.998-7.362-12.26-17.58-12.26-27.639 0-.863.063-1.823.18-2.847l-.066-.036c.028-.054.06-.101.088-.152.708-5.845 3.416-13.864 9.36-19.872 4.831-4.885 11.773-8.446 21.459-8.446.89 0 1.889.07 2.963.213V0l1.257.2c2.133.34 4.26.783 6.366 1.319a76.018 76.018 0 0 1 6.342 1.923c1 .35 8.243 3.491 9.086 3.929a68.296 68.296 0 0 1 7.83 4.75 63.77 63.77 0 0 1 6.95 5.648c.534.502 5.553 5.954 6.175 6.753a57.024 57.024 0 0 1 9.268 17.37z"/></g></g></svg>