<?xml version="1.0" encoding="utf-8"?>
<!-- Generator: Adobe Illustrator 21.1.0, SVG Export Plug-In . SVG Version: 6.00 Build 0)  -->
<svg version="1.1" id="Layer_1" xmlns="http://www.w3.org/2000/svg" xmlns:xlink="http://www.w3.org/1999/xlink" x="0px" y="0px"
	 width="22px" height="22px" viewBox="0 0 22 22" style="enable-background:new 0 0 22 22;" xml:space="preserve">
<style type="text/css">
	.st0{fill:#FFFFFF;}
</style>
<path class="st0" d="M17.2,22L17.2,22c-2-0.1-3.8-0.5-5.5-1.3c-2.2-1-4.1-2.3-5.8-4c-1.9-1.8-3.5-4-4.6-6.4C0.5,8.7,0.1,7,0,5.3
	c-0.1-1.1,0.3-2.1,1.1-2.8c0.6-0.6,1.2-1.1,2-1.5c0.5-0.3,1-0.5,1.5-0.7l0.1,0C5,0,5.3,0,5.7,0c0.4,0.1,0.7,0.4,0.9,0.7
	c1,1.4,2,2.8,3,4.2c0.6,0.7,0.5,1.9-0.3,2.5L9.2,7.5C9,7.7,8.7,8,8.4,8.2L7.9,8.6l0,0l0,0.1c0.5,0.9,1,1.8,1.7,2.7
	c0.8,0.9,1.7,1.6,2.8,2.2c0.3,0.2,0.6,0.4,0.9,0.5c0.3-0.3,0.5-0.6,0.8-0.9l0.4-0.5c0.3-0.4,0.7-0.6,1.1-0.7c0.5-0.1,1,0,1.4,0.3
	c0.1,0,0.1,0.1,0.2,0.1l4.1,2.9c0.7,0.4,1,1.3,0.7,2l-0.1,0.1c-0.4,1-1,2-1.6,2.8c-0.3,0.4-0.6,0.7-1,1C18.7,21.7,17.9,22,17.2,22
	L17.2,22z M5.2,2.1C4.8,2.3,4.4,2.5,4,2.7C3.4,3,2.9,3.4,2.5,3.8C2.2,4.2,2,4.7,2,5.2c0.1,1.5,0.5,2.9,1.1,4.3
	c1,2.2,2.4,4.1,4.1,5.8c1.5,1.5,3.3,2.7,5.2,3.6c1.5,0.7,3.1,1.1,4.7,1.1c0.3,0,0.5-0.1,0.7-0.3c0.3-0.2,0.5-0.5,0.7-0.7
	c0.5-0.6,0.9-1.4,1.3-2.1L16,14.1l-0.4,0.5c-0.2,0.3-0.5,0.6-0.7,0.9c-0.6,0.8-1.7,1-2.5,0.5c-0.3-0.2-0.7-0.3-1-0.5
	c-1.3-0.7-2.4-1.6-3.4-2.7c-0.8-1-1.4-2-1.9-3C5.5,8.9,5.8,7.7,6.7,7l0.5-0.4C7.4,6.4,7.6,6.2,7.9,6C7,4.7,6.1,3.4,5.2,2.1z M8,6.2
	C8,6.2,8,6.2,8,6.2C8,6.2,8,6.2,8,6.2z"/>
</svg>
