<?xml version="1.0" encoding="utf-8"?>
<!-- Generator: Adobe Illustrator 21.1.0, SVG Export Plug-In . SVG Version: 6.00 Build 0)  -->
<svg version="1.1" id="Layer_1" xmlns="http://www.w3.org/2000/svg" xmlns:xlink="http://www.w3.org/1999/xlink" x="0px" y="0px"
	 width="62px" height="70px" viewBox="0 0 62 70" style="enable-background:new 0 0 62 70;" xml:space="preserve">
<style type="text/css">
	.st0{opacity:0.5;fill:#212121;enable-background:new    ;}
	.st1{fill:#212121;}
</style>
<path class="st0" d="M61,66c-0.6,0-1-0.4-1-1V16.4L45.6,2H5C4.4,2,4,1.6,4,1s0.4-1,1-1h41c0.3,0,0.5,0.1,0.7,0.3l15,15
	c0.2,0.2,0.3,0.4,0.3,0.7v49C62,65.6,61.6,66,61,66z"/>
<path class="st1" d="M57.7,17.3l-13-13c0,0,0,0-0.1,0c-0.1-0.1-0.1-0.1-0.2-0.2c0,0-0.1,0-0.1,0c-0.1,0-0.2,0-0.3-0.1c0,0,0,0-0.1,0
	H1C0.4,4,0,4.4,0,5v64c0,0.6,0.4,1,1,1h56c0.6,0,1-0.4,1-1V18C58,17.7,57.9,17.5,57.7,17.3z M53.7,17H45V7.6L53.7,17z M56,68H2V6h41
	v12c0,0.6,0.4,1,1,1h12V68z"/>
<path id="Rounded_Rectangle_8_copy_4" class="st0" d="M8.5,17h28c0.3,0,0.5,0.2,0.5,0.5v1c0,0.3-0.2,0.5-0.5,0.5h-28
	C8.2,19,8,18.8,8,18.5v-1C8,17.2,8.2,17,8.5,17z"/>
<path id="Rounded_Rectangle_8_copy_4-2" class="st0" d="M20.5,27h29c0.3,0,0.5,0.2,0.5,0.5v1c0,0.3-0.2,0.5-0.5,0.5h-29
	c-0.3,0-0.5-0.2-0.5-0.5v-1C20,27.2,20.2,27,20.5,27z"/>
<path id="Rounded_Rectangle_8_copy_4-3" class="st0" d="M20.5,32h29c0.3,0,0.5,0.2,0.5,0.5v1c0,0.3-0.2,0.5-0.5,0.5h-29
	c-0.3,0-0.5-0.2-0.5-0.5v-1C20,32.2,20.2,32,20.5,32z"/>
<path d="M10.7,34c-0.2,0-0.5-0.1-0.7-0.3l-1.7-1.5c-0.4-0.4-0.4-1-0.1-1.4c0.4-0.4,1-0.4,1.4-0.1l1,0.9l4.7-4.4c0.4-0.4,1-0.4,1.4,0
	c0.4,0.4,0.4,1,0,1.4l-5.3,5C11.2,33.9,10.9,34,10.7,34z"/>
<path id="Rounded_Rectangle_8_copy_5" class="st0" d="M20.5,39h29c0.3,0,0.5,0.2,0.5,0.5v1c0,0.3-0.2,0.5-0.5,0.5h-29
	c-0.3,0-0.5-0.2-0.5-0.5v-1C20,39.2,20.2,39,20.5,39z"/>
<path id="Rounded_Rectangle_8_copy_5-2" class="st0" d="M20.5,44h29c0.3,0,0.5,0.2,0.5,0.5v1c0,0.3-0.2,0.5-0.5,0.5h-29
	c-0.3,0-0.5-0.2-0.5-0.5v-1C20,44.2,20.2,44,20.5,44z"/>
<path d="M10.7,46c-0.2,0-0.5-0.1-0.7-0.3l-1.7-1.5c-0.4-0.4-0.4-1-0.1-1.4c0.4-0.4,1-0.4,1.4-0.1l1,0.9l4.7-4.4c0.4-0.4,1-0.4,1.4,0
	c0.4,0.4,0.4,1,0,1.4l-5.3,5C11.2,45.9,10.9,46,10.7,46z"/>
<path id="Rounded_Rectangle_8_copy_6" class="st0" d="M20.5,52h29c0.3,0,0.5,0.2,0.5,0.5v1c0,0.3-0.2,0.5-0.5,0.5h-29
	c-0.3,0-0.5-0.2-0.5-0.5v-1C20,52.2,20.2,52,20.5,52z"/>
<path id="Rounded_Rectangle_8_copy_6-2" class="st0" d="M20.5,57h29c0.3,0,0.5,0.2,0.5,0.5v1c0,0.3-0.2,0.5-0.5,0.5h-29
	c-0.3,0-0.5-0.2-0.5-0.5v-1C20,57.2,20.2,57,20.5,57z"/>
<path d="M10.7,59c-0.2,0-0.5-0.1-0.7-0.3l-1.7-1.5c-0.4-0.4-0.4-1-0.1-1.4c0.4-0.4,1-0.4,1.4-0.1l1,0.9l4.7-4.4c0.4-0.4,1-0.4,1.4,0
	c0.4,0.4,0.4,1,0,1.4l-5.3,5C11.2,58.9,10.9,59,10.7,59z"/>
</svg>
