<svg version="1.1" id="Layer_1" xmlns="http://www.w3.org/2000/svg" x="0" y="0" width="90" height="90" xml:space="preserve">
  <style>
    .st0{opacity:.5;fill:#1e1f20;enable-background:new}.st1{fill:#fff}.st2{fill:#1e1f20}.st3{opacity:.5;fill:#212121;enable-background:new}.st6{fill:#cf9713}
  </style>
  <path id="Rounded_Rectangle_15_1_" class="st0" d="M70.1 20c1.1 0 2 .9 2 2v51c0 1.1-.9 2-2 2h-50c-1.1 0-2-.9-2-2V22c0-1.1.9-2 2-2h50m0-2h-50c-2.2 0-4 1.8-4 4v51c0 2.2 1.8 4 4 4h50c2.2 0 4-1.8 4-4V22c0-2.2-1.8-4-4-4z"/>
  <path id="Rounded_Rectangle_15_copy_2_3_" class="st1" d="M22.1 16h46c1.1 0 2 .9 2 2v53c0 1.1-.9 2-2 2h-46c-1.1 0-2-.9-2-2V18c0-1.1.9-2 2-2z"/>
  <path id="Rounded_Rectangle_15_copy_2_1_" class="st2" d="M68.1 18v53h-46V18h46m0-2h-46c-1.1 0-2 .9-2 2v53c0 1.1.9 2 2 2h46c1.1 0 2-.9 2-2V18c0-1.1-.9-2-2-2z"/>
  <path class="st2" d="M30.1 37c-.3 0-.5-.1-.7-.3l-3-3c-.4-.4-.4-1 0-1.4s1-.4 1.4 0l2.3 2.3 4.3-4.3c.4-.4 1-.4 1.4 0s.4 1 0 1.4l-5 5c-.2.2-.4.3-.7.3zM30.1 49c-.3 0-.5-.1-.7-.3l-3-3c-.4-.4-.4-1 0-1.4s1-.4 1.4 0l2.3 2.3 4.3-4.3c.4-.4 1-.4 1.4 0s.4 1 0 1.4l-5 5c-.2.2-.4.3-.7.3z"/>
  <path id="Rounded_Rectangle_18" class="st3" d="M41.1 31h20c.6 0 1 .4 1 1s-.4 1-1 1h-20c-.6 0-1-.4-1-1s.5-1 1-1z"/>
  <path id="Rounded_Rectangle_18_copy" class="st3" d="M41.1 35h20c.6 0 1 .4 1 1s-.4 1-1 1h-20c-.6 0-1-.4-1-1s.5-1 1-1z"/>
  <path id="Rounded_Rectangle_18_copy_2" class="st3" d="M41.1 43h20c.6 0 1 .4 1 1s-.4 1-1 1h-20c-.6 0-1-.4-1-1s.5-1 1-1z"/>
  <path id="Rounded_Rectangle_18_copy_2-2" class="st3" d="M41.1 47h20c.6 0 1 .4 1 1s-.4 1-1 1h-20c-.6 0-1-.4-1-1s.5-1 1-1z"/>
  <path id="Rounded_Rectangle_18_copy_3" class="st3" d="M41.1 55h20c.6 0 1 .4 1 1s-.4 1-1 1h-20c-.6 0-1-.4-1-1s.5-1 1-1z"/>
  <path id="Rounded_Rectangle_18_copy_3-2" class="st3" d="M41.1 59h20c.6 0 1 .4 1 1s-.4 1-1 1h-20c-.6 0-1-.4-1-1s.5-1 1-1z"/>
  <path class="st2" d="M30.1 61c-.3 0-.5-.1-.7-.3l-3-3c-.4-.4-.4-1 0-1.4s1-.4 1.4 0l2.3 2.3 4.3-4.3c.4-.4 1-.4 1.4 0s.4 1 0 1.4l-5 5c-.2.2-.4.3-.7.3z"/>
  <path id="Rounded_Rectangle_16_3_" class="st1" d="M33.1 16h24c1.1 0 2 .9 2 2v2c0 1.1-.9 2-2 2h-24c-1.1 0-2-.9-2-2v-2c0-1.1.9-2 2-2z"/>
  <path id="Rounded_Rectangle_16_1_" class="st2" d="M57.1 18v2h-24v-2h24m0-2h-24c-1.1 0-2 .9-2 2v2c0 1.1.9 2 2 2h24c1.1 0 2-.9 2-2v-2c0-1.1-.9-2-2-2z"/>
  <path id="Rounded_Rectangle_16_copy_1_" class="st0" d="M57.1 15v5h-24v-5h24m0-2h-24c-1.1 0-2 .9-2 2v5c0 1.1.9 2 2 2h24c1.1 0 2-.9 2-2v-5c0-1.1-.9-2-2-2z"/>
  <path class="st1" d="M82 44.7L79.3 42c-1.3-1.3-3-2-4.8-2-1.8 0-3.5.7-4.8 2L67 44.7l-2.1 2.1.1.1-11 11-.9.9V71h12.2l.9-.9 15-15 1.9-2.3c1.5-2.6 1.1-5.9-1.1-8.1zM74.9 43h-.4.4zm2.3 1.1c-.2-.2-.4-.3-.6-.5.2.2.4.3.6.5zm-.8-.6c-.1-.1-.3-.2-.4-.2.1 0 .2.1.4.2zm-.8-.3c-.1 0-.3-.1-.4-.1.2 0 .3.1.4.1zm-1.5-.2h-.3c.1.1.2.1.3 0zm-.7.2c-.1 0-.2 0-.3.1.1-.1.2-.1.3-.1zm-.8.3c-.1 0-.2.1-.2.1.1 0 .2 0 .2-.1z"/>
  <path d="M79.9 46.8l-2.7-2.7c-.7-.7-1.7-1.1-2.7-1.1-1 0-1.9.4-2.7 1.1l-2.7 2.7-13 13.2v8h8l15-15 .8-.8c1.5-1.5 1.5-3.9 0-5.4zM63.3 66h-3.2l-2-2v-3.2l12.5-12.5 5.2 5.2L63.3 66zm15.2-15.2l-.8.8-5.3-5.3.8-.8c.3-.3.8-.5 1.3-.5s.9.2 1.3.5l2.7 2.7c.7.7.7 1.9 0 2.6z" fill="#212121"/>
  <g>
    <path d="M56.1 60l8 8 14-14 1-1-8-8-15 15z" fill="#fdcb55"/>
    <path class="st6" d="M62.1 65c-.3 0-.5-.1-.7-.3-.4-.4-.4-1 0-1.4l13-13c.4-.4 1-.4 1.4 0s.4 1 0 1.4l-13 13c-.2.2-.4.3-.7.3zM60.1 63c-.3 0-.5-.1-.7-.3-.4-.4-.4-1 0-1.4l13-13c.4-.4 1-.4 1.4 0s.4 1 0 1.4l-13 13c-.2.2-.4.3-.7.3z"/>
    <path class="st2" d="M71.1 47.8l5.2 5.2-12.2 12.2L59 60l12.1-12.2m0-2.8l-15 15 8 8 14-14 1-1-8-8z"/>
  </g>
</svg>
