<?xml version="1.0" encoding="utf-8"?>
<!-- Generator: Adobe Illustrator 21.1.0, SVG Export Plug-In . SVG Version: 6.00 Build 0)  -->
<svg version="1.1" id="Layer_1" xmlns="http://www.w3.org/2000/svg" xmlns:xlink="http://www.w3.org/1999/xlink" x="0px" y="0px"
	 width="90px" height="90px" viewBox="0 0 90 90" style="enable-background:new 0 0 90 90;" xml:space="preserve">
<style type="text/css">
	.st0{fill:#F3F3F3;}
	.st1{opacity:0.5;fill:#212121;enable-background:new    ;}
	.st2{fill:#212121;}
	.st3{fill:#F4F4F4;}
	.st4{fill:#FECC56;}
	.st5{fill:#CF9713;}
</style>
<g>
	<polygon class="st0" points="53,21 16,21 16,73 66,73 66,34 	"/>
	<path class="st1" d="M70,70c-0.6,0-1-0.4-1-1V32.4L54.6,18H20c-0.6,0-1-0.4-1-1s0.4-1,1-1h35c0.3,0,0.5,0.1,0.7,0.3l15,15
		c0.2,0.2,0.3,0.4,0.3,0.7v37C71,69.6,70.6,70,70,70z"/>
	<path class="st2" d="M64.6,72H17V22h35v12c0,0.6,0.4,1,1,1h12v29.1c0.5,0.1,0.9,0.4,1.3,0.8l0.7,0.7V34c0,0,0,0,0-0.1
		c0-0.1,0-0.2-0.1-0.3c0,0,0-0.1,0-0.1c0-0.1-0.1-0.2-0.2-0.3l-13-13c-0.1-0.1-0.2-0.1-0.3-0.2c0,0-0.1,0-0.1,0
		c-0.1,0-0.2,0-0.3-0.1c0,0,0,0-0.1,0H16c-0.6,0-1,0.4-1,1v52c0,0.6,0.4,1,1,1h50c0.2,0,0.3,0,0.5-0.1L64.6,72z M54,23.4l9.6,9.6H54
		V23.4z"/>
	<g>
		<path id="Rounded_Rectangle_8_copy_12" class="st1" d="M23.5,49h35c0.3,0,0.5,0.2,0.5,0.5v1c0,0.3-0.2,0.5-0.5,0.5h-35
			c-0.3,0-0.5-0.2-0.5-0.5v-1C23,49.2,23.2,49,23.5,49z"/>
		<path id="Rounded_Rectangle_8_copy_12-2" class="st1" d="M23.5,43h35c0.3,0,0.5,0.2,0.5,0.5v1c0,0.3-0.2,0.5-0.5,0.5h-35
			c-0.3,0-0.5-0.2-0.5-0.5v-1C23,43.2,23.2,43,23.5,43z"/>
		<path id="Rounded_Rectangle_8_copy_12-3" class="st1" d="M23.5,54h35c0.3,0,0.5,0.2,0.5,0.5v1c0,0.3-0.2,0.5-0.5,0.5h-35
			c-0.3,0-0.5-0.2-0.5-0.5v-1C23,54.2,23.2,54,23.5,54z"/>
		<path id="Rounded_Rectangle_8_copy_12-4" class="st1" d="M23.5,59h35c0.3,0,0.5,0.2,0.5,0.5v1c0,0.3-0.2,0.5-0.5,0.5h-35
			c-0.3,0-0.5-0.2-0.5-0.5v-1C23,59.2,23.2,59,23.5,59z"/>
		<path id="Rounded_Rectangle_8_copy_12-5" class="st1" d="M23.5,64h11c0.3,0,0.5,0.2,0.5,0.5v1c0,0.3-0.2,0.5-0.5,0.5h-11
			c-0.3,0-0.5-0.2-0.5-0.5v-1C23,64.2,23.2,64,23.5,64z"/>
		<path id="Rounded_Rectangle_1" class="st1" d="M24,31h19c0.6,0,1,0.4,1,1v2c0,0.6-0.4,1-1,1H24c-0.6,0-1-0.4-1-1v-2
			C23,31.5,23.5,31,24,31z"/>
	</g>
	<circle class="st3" cx="50" cy="54" r="14"/>
</g>
<path class="st2" d="M75.1,73.7l-8.8-8.8c-0.6-0.6-1.4-0.9-2.2-0.9c-0.5,0-0.9,0.1-1.4,0.3c0,0,0,0,0,0L61,62.6c1.9-2.4,3-5.4,3-8.6
	c0-7.7-6.3-14-14-14s-14,6.3-14,14s6.3,14,14,14c3.8,0,7.2-1.5,9.7-3.9l1.6,1.6c0,0,0,0,0,0c-0.6,1.2-0.4,2.6,0.6,3.6l8.8,8.8
	c0.6,0.6,1.4,0.9,2.2,0.9c0.8,0,1.6-0.3,2.2-0.9C76.3,76.9,76.3,74.9,75.1,73.7z M50,66c-6.6,0-12-5.4-12-12s5.4-12,12-12
	s12,5.4,12,12S56.6,66,50,66z M73.7,76.7c-0.2,0.2-0.5,0.3-0.8,0.3c-0.3,0-0.6-0.1-0.8-0.3l-8.8-8.8c-0.4-0.4-0.4-1.1,0-1.6
	c0.2-0.2,0.5-0.3,0.8-0.3c0.3,0,0.6,0.1,0.8,0.3l8.8,8.7C74.1,75.5,74.1,76.2,73.7,76.7z"/>
<g>
	<circle id="Ellipse_5_copy_2-2_3_" class="st4" cx="50" cy="54" r="10"/>
	<path id="Ellipse_5_copy_2-2_1_" class="st5" d="M50,46c4.4,0,8,3.6,8,8s-3.6,8-8,8s-8-3.6-8-8S45.6,46,50,46 M50,44
		c-5.5,0-10,4.5-10,10s4.5,10,10,10s10-4.5,10-10S55.5,44,50,44L50,44z"/>
	<path class="st2" d="M49,58c-0.3,0-0.5-0.1-0.7-0.3l-3-3c-0.4-0.4-0.4-1,0-1.4s1-0.4,1.4,0l2.3,2.3l4.3-4.3c0.4-0.4,1-0.4,1.4,0
		s0.4,1,0,1.4l-5,5C49.5,57.9,49.3,58,49,58z"/>
</g>
</svg>
