<?xml version="1.0" encoding="utf-8"?>
<!-- Generator: Adobe Illustrator 21.1.0, SVG Export Plug-In . SVG Version: 6.00 Build 0)  -->
<svg version="1.1" id="Layer_1" xmlns="http://www.w3.org/2000/svg" xmlns:xlink="http://www.w3.org/1999/xlink" x="0px" y="0px"
	 width="90px" height="90px" viewBox="0 0 90 90" style="enable-background:new 0 0 90 90;" xml:space="preserve">
<style type="text/css">
	.st0{opacity:0.5;fill:#212121;enable-background:new    ;}
	.st1{fill:#FFFFFF;}
	.st2{fill:#212121;}
	.st3{fill:#FECC56;}
	.st4{fill:#CF9713;}
</style>
<g>
	<path id="Rounded_Rectangle_8_copy_8" class="st0" d="M22.5,46h36c0.3,0,0.5,0.2,0.5,0.5v1c0,0.3-0.2,0.5-0.5,0.5h-36
		c-0.3,0-0.5-0.2-0.5-0.5v-1C22,46.2,22.2,46,22.5,46z"/>
	<path id="Rounded_Rectangle_8_copy_10" class="st0" d="M22.5,51h36c0.3,0,0.5,0.2,0.5,0.5v1c0,0.3-0.2,0.5-0.5,0.5h-36
		c-0.3,0-0.5-0.2-0.5-0.5v-1C22,51.2,22.2,51,22.5,51z"/>
	<path id="Rounded_Rectangle_8_copy_9" class="st0" d="M22.5,56h21c0.3,0,0.5,0.2,0.5,0.5v1c0,0.3-0.2,0.5-0.5,0.5h-21
		c-0.3,0-0.5-0.2-0.5-0.5v-1C22,56.2,22.2,56,22.5,56z"/>
	<path id="Rounded_Rectangle_1" class="st0" d="M23,32h44c0.6,0,1,0.4,1,1v2c0,0.6-0.4,1-1,1H23c-0.6,0-1-0.4-1-1v-2
		C22,32.4,22.4,32,23,32z"/>
	<path class="st1" d="M64,42c-5,0-9,4-9,9v8c0,1.7,1.3,3,3,3h12c1.7,0,3-1.3,3-3v-8C73,46,69,42,64,42z M67,56h-6v-5
		c0-1.7,1.3-3,3-3s3,1.3,3,3V56z"/>
	<path id="Rounded_Rectangle_8_copy_9_1_" class="st0" d="M22.9,41h36.3c0.5,0,0.9,0.2,0.9,0.5v1c0,0.3-0.4,0.5-0.9,0.5H22.9
		c-0.5,0-0.9-0.2-0.9-0.5v-1C22,41.2,22.4,41,22.9,41z"/>
</g>
<path class="st2" d="M88.1,66c0,0-0.1,0-0.1,0h-7V24c0-3.3-2.7-6-6-6H15c-3.3,0-6,2.7-6,6v42H2c-0.5,0-1,0.4-1,0.9c0,0,0,0.1,0,0.1
	v1c0,2.2,1.8,4,4,4h80c2.2,0,4-1.8,4-4v-1C89,66.5,88.6,66,88.1,66z M11,24c0-2.2,1.8-4,4-4h60c2.2,0,4,1.8,4,4v42h-2V24
	c0-1.1-0.9-2-2-2H15c-1.1,0-2,0.9-2,2v42h-2V24z M75,66H15V24h60V66z M85,70H5c-1.1,0-2-0.9-2-2h12h20c0,1.1,0.9,1,2,1h17
	c1.1,0,2,0.1,2-1h19h12C87,69.1,86.1,70,85,70z"/>
<g>
	<g>
		<path class="st1" d="M55,76c-1.7,0-3-1.3-3-3V61c0-1.7,1.3-3,3-3h3v-7c0-3.3,2.7-6,6-6s6,2.7,6,6c0-3.3-2.7-6-6-6s-6,2.7-6,6v7h15
			c1.7,0,3,1.3,3,3v12c0,1.7-1.3,3-3,3H55z"/>
		<path class="st2" d="M73,59c1.1,0,2,0.9,2,2v12c0,1.1-0.9,2-2,2H55c-1.1,0-2-0.9-2-2V61c0-1.1,0.9-2,2-2h2h2h10h2H73 M64,44
			c-3.9,0-7,3.1-7,7v6h-2c-2.2,0-4,1.8-4,4v12c0,2.2,1.8,4,4,4h18c2.2,0,4-1.8,4-4V61c0-2.2-1.8-4-4-4h-2v-6C71,47.1,67.9,44,64,44
			L64,44z M59,57v-6c0-2.8,2.2-5,5-5c2.8,0,5,2.2,5,5v6H59L59,57z"/>
	</g>
	<g>
		<path id="Rounded_Rectangle_1_copy_3_" class="st3" d="M56,60h16c1.1,0,2,0.9,2,2v10c0,1.1-0.9,2-2,2H56c-1.1,0-2-0.9-2-2V62
			C54,60.9,54.9,60,56,60z"/>
		<path id="Rounded_Rectangle_1_copy_1_" class="st4" d="M72,62v10H56V62H72 M72,60H56c-1.1,0-2,0.9-2,2v10c0,1.1,0.9,2,2,2h16
			c1.1,0,2-0.9,2-2V62C74,60.9,73.1,60,72,60L72,60z"/>
	</g>
	<path class="st2" d="M66,66c0-1.1-0.9-2-2-2s-2,0.9-2,2c0,0.7,0.4,1.4,1,1.7V69c0,0.6,0.4,1,1,1s1-0.4,1-1v-1.3
		C65.6,67.4,66,66.7,66,66z"/>
</g>
</svg>
