<?xml version="1.0" encoding="utf-8"?>
<!-- Generator: Adobe Illustrator 21.1.0, SVG Export Plug-In . SVG Version: 6.00 Build 0)  -->
<svg version="1.1" id="Layer_1" xmlns="http://www.w3.org/2000/svg" xmlns:xlink="http://www.w3.org/1999/xlink" x="0px" y="0px"
	 width="75px" height="65px" viewBox="0 0 75 65" style="enable-background:new 0 0 75 65;" xml:space="preserve">
<style type="text/css">
	.st0{fill:#FFFFFF;}
	.st1{fill:#1E1F20;}
	.st2{opacity:0.5;fill:#1E1F20;}
	.st3{opacity:0.8;enable-background:new    ;}
	.st4{opacity:0.5;fill:#212121;enable-background:new    ;}
	.st5{opacity:0.3;enable-background:new    ;}
	.st6{fill:#FDCB55;}
	.st7{opacity:0.9;fill:#FFFFFF;enable-background:new    ;}
	.st8{fill:#CF9713;}
</style>
<g>
	<path id="Rounded_Rectangle_15_copy_2_3_" class="st0" d="M2,0h58c1.1,0,2,0.9,2,2v46c0,1.1-0.9,2-2,2H2c-1.1,0-2-0.9-2-2V2
		C0,0.9,0.9,0,2,0z"/>
	<path id="Rounded_Rectangle_15_copy_2_1_" class="st1" d="M60,2v46H2V2H60 M60,0H2C0.9,0,0,0.9,0,2v46c0,1.1,0.9,2,2,2h58
		c1.1,0,2-0.9,2-2V2C62,0.9,61.1,0,60,0L60,0z"/>
</g>
<path class="st2" d="M56,5H20.7c0.5,0.6,0.8,1.3,1.2,2H55v36H7V31.7L5,33v11c0,0.6,0.4,1,1,1h50c0.6,0,1-0.4,1-1V6
	C57,5.4,56.6,5,56,5z"/>
<g class="st3">
	<path class="st0" d="M5,0v29l6-4l6,4V0H5z"/>
	<path class="st1" d="M15,2v23.3l-2.9-1.9C11.8,23.1,11.4,23,11,23s-0.8,0.1-1.1,0.3L7,25.3V2H15 M17,0H5v29l6-4l6,4V0L17,0z"/>
</g>
<path id="Rounded_Rectangle_18" class="st4" d="M27,23h22c0.6,0,1,0.4,1,1l0,0c0,0.6-0.4,1-1,1H27c-0.6,0-1-0.4-1-1l0,0
	C26,23.4,26.4,23,27,23z"/>
<path id="Rounded_Rectangle_18_copy_5" class="st4" d="M27,14h22c0.6,0,1,0.4,1,1v1c0,0.6-0.4,1-1,1H27c-0.6,0-1-0.4-1-1v-1
	C26,14.4,26.4,14,27,14z"/>
<g>
	<circle class="st0" cx="11" cy="13" r="8"/>
	<path class="st1" d="M11,7c3.3,0,6,2.7,6,6s-2.7,6-6,6s-6-2.7-6-6S7.7,7,11,7 M11,5c-4.4,0-8,3.6-8,8s3.6,8,8,8s8-3.6,8-8
		S15.4,5,11,5L11,5z"/>
</g>
<g class="st5">
	<circle id="Ellipse_7_copy_3_" class="st0" cx="11" cy="13" r="5"/>
	<path id="Ellipse_7_copy_1_" class="st1" d="M11,10c1.7,0,3,1.3,3,3s-1.3,3-3,3s-3-1.3-3-3S9.3,10,11,10 M11,8c-2.8,0-5,2.2-5,5
		s2.2,5,5,5s5-2.2,5-5S13.8,8,11,8L11,8z"/>
</g>
<path id="Rounded_Rectangle_18_copy" class="st4" d="M27,27h22c0.6,0,1,0.4,1,1l0,0c0,0.6-0.4,1-1,1H27c-0.6,0-1-0.4-1-1l0,0
	C26,27.4,26.4,27,27,27z"/>
<path id="Rounded_Rectangle_18_copy_2" class="st4" d="M27,31h22c0.6,0,1,0.4,1,1l0,0c0,0.6-0.4,1-1,1H27c-0.6,0-1-0.4-1-1l0,0
	C26,31.4,26.4,31,27,31z"/>
<path id="Rounded_Rectangle_18_copy_3" class="st4" d="M27,35h22c0.6,0,1,0.4,1,1l0,0c0,0.6-0.4,1-1,1H27c-0.6,0-1-0.4-1-1l0,0
	C26,35.4,26.4,35,27,35z"/>
<path id="Rounded_Rectangle_18_copy_4" class="st4" d="M13,35h7c0.6,0,1,0.4,1,1l0,0c0,0.6-0.4,1-1,1h-7c-0.6,0-1-0.4-1-1l0,0
	C12,35.4,12.4,35,13,35z"/>
<path class="st0" d="M73,35.7C73,27.6,66.4,21,58.3,21h-0.5C49.6,21,43,27.6,43,35.7c0,4.8,2.3,9.2,6.1,12c0,0.2,0.1,0.4,0.2,0.6
	C49.1,48.9,49,49.4,49,50v1v2v1c0,1.3,0.5,2.6,1.4,3.5c1,3.3,4.1,5.5,7.6,5.5c3.5,0,6.5-2.3,7.6-5.5c0.9-0.9,1.4-2.2,1.4-3.5v-1v-2
	v-1c0-0.6-0.1-1.1-0.3-1.7c0.1-0.2,0.1-0.4,0.2-0.6C70.7,44.9,73,40.5,73,35.7z M52,46c-0.4-0.3-0.9-0.5-1.3-0.8
	C51.2,45.5,51.6,45.7,52,46L52,46z M53.3,56.6c0.2,0.6,0.5,1.1,0.8,1.5C53.8,57.7,53.5,57.2,53.3,56.6z M61.9,58.2
	c0.4-0.4,0.7-1,0.8-1.5C62.5,57.2,62.2,57.7,61.9,58.2z M62,46.4c0-0.1,0-0.2,0-0.2c0-0.3,0-0.6,0.2-0.9C62,45.5,62,45.8,62,46.1
	C62,46.2,62,46.3,62,46.4z"/>
<path class="st6" d="M70,35.7C70,29.3,64.7,24,58.3,24h-0.5C51.3,24,46,29.3,46,35.7c0,4.4,2.4,8.2,6,10.3c0,0.1,0,0.2,0,0.3v0
	c0,2.6,2.1,4.7,4.7,4.7h2.6c2.6,0,4.7-2.1,4.7-4.7v0c0-0.1,0-0.2,0-0.3C67.6,44,70,40.1,70,35.7z"/>
<path class="st0" d="M62,48h-8c-1.1,0-2,0.9-2,2v1v2v1c0,0.8,0.4,1.4,1.1,1.8c0.4,2.4,2.4,4.2,4.9,4.2s4.6-1.8,4.9-4.2
	c0.6-0.3,1.1-1,1.1-1.8v-1v-2v-1C64,48.9,63.1,48,62,48z"/>
<circle class="st7" cx="58" cy="36" r="7"/>
<path class="st8" d="M61.7,35.3c-0.4-0.4-1.1-0.4-1.5,0L58,37.5l-2.2-2.2c-0.4-0.4-1.1-0.4-1.5,0c-0.4,0.4-0.4,1.1,0,1.5l2.8,2.8
	C57,39.7,57,39.8,57,40v7c0,0.6,0.4,1,1,1s1-0.4,1-1v-7c0-0.2,0-0.3-0.1-0.4l2.8-2.8C62.1,36.4,62.1,35.7,61.7,35.3z"/>
<path class="st1" d="M70,35.7C70,29.3,64.7,24,58.3,24h-0.5C51.3,24,46,29.3,46,35.7c0,4.4,2.4,8.2,6,10.3c0,0.1,0,0.2,0,0.3v0
	c0,0.8,0.2,1.6,0.6,2.3C52.2,48.9,52,49.4,52,50v1v2v1c0,0.8,0.4,1.4,1.1,1.8c0.4,2.4,2.4,4.2,4.9,4.2s4.6-1.8,4.9-4.2
	c0.6-0.3,1.1-1,1.1-1.8v-1v-2v-1c0-0.6-0.2-1.1-0.6-1.4c0.4-0.7,0.6-1.4,0.6-2.3v0c0-0.1,0-0.2,0-0.3C67.6,44,70,40.1,70,35.7z
	 M58,58c-1.3,0-2.4-0.8-2.8-2h5.7C60.4,57.2,59.3,58,58,58z M62,54h-8v-1h8V54z M62,51h-8v-1h8V51z M63,44.2c-0.7,0.4-1.1,1.1-1,1.9
	c0,0.1,0,0.2,0,0.2c0,0.6-0.2,1.2-0.6,1.6h-6.8c-0.4-0.5-0.6-1-0.6-1.6c0-0.1,0-0.2,0-0.2c0.1-0.8-0.3-1.5-1-1.9c-3.1-1.7-5-5-5-8.5
	c0-5.4,4.4-9.7,9.7-9.7h0.5c5.4,0,9.7,4.4,9.7,9.7C68,39.3,66.1,42.5,63,44.2z"/>
</svg>
