<?xml version="1.0" encoding="utf-8"?>
<!-- Generator: Adobe Illustrator 21.1.0, SVG Export Plug-In . SVG Version: 6.00 Build 0)  -->
<svg version="1.1" id="Layer_1" xmlns="http://www.w3.org/2000/svg" xmlns:xlink="http://www.w3.org/1999/xlink" x="0px" y="0px"
	 width="90px" height="90px" viewBox="0 0 90 90" style="enable-background:new 0 0 90 90;" xml:space="preserve">
<style type="text/css">
	.st0{fill:#FFFFFF;}
	.st1{opacity:0.5;fill:#212121;enable-background:new    ;}
	.st2{fill:#212121;}
	.st3{fill:#FECC56;}
	.st4{fill:#CF9713;}
</style>
<g>
	<path class="st0" d="M4,69h26V49l-9-9H4V69z"/>
	<path class="st1" d="M34,66c-0.6,0-1-0.4-1-1V47.4L22.6,37H8c-0.6,0-1-0.4-1-1s0.4-1,1-1h15c0.3,0,0.5,0.1,0.7,0.3l11,11
		c0.2,0.2,0.3,0.4,0.3,0.7v18C35,65.6,34.6,66,34,66z"/>
	<path class="st2" d="M30.7,48.3l-9-9C21.5,39.1,21.3,39,21,39H4c-0.6,0-1,0.4-1,1v29c0,0.6,0.4,1,1,1h26c0.6,0,1-0.4,1-1V49
		C31,48.7,30.9,48.5,30.7,48.3z M28.6,49H21v-7.6L28.6,49z M5,68V41h14v9c0,0.6,0.4,1,1,1h9v17H5z"/>
	<path id="Rounded_Rectangle_13" class="st1" d="M9,47h6c0.6,0,1,0.4,1,1v1c0,0.6-0.4,1-1,1H9c-0.6,0-1-0.4-1-1v-1
		C8,47.4,8.4,47,9,47z"/>
	<path id="Rounded_Rectangle_13_copy_2" class="st1" d="M9,54h16c0.6,0,1,0.4,1,1l0,0c0,0.6-0.4,1-1,1H9c-0.6,0-1-0.4-1-1l0,0
		C8,54.4,8.4,54,9,54z"/>
	<path id="Rounded_Rectangle_13_copy_3" class="st1" d="M9,58h16c0.6,0,1,0.4,1,1l0,0c0,0.6-0.4,1-1,1H9c-0.6,0-1-0.4-1-1l0,0
		C8,58.4,8.4,58,9,58z"/>
	<path id="Rounded_Rectangle_13_copy_4" class="st1" d="M9,62h16c0.6,0,1,0.4,1,1l0,0c0,0.6-0.4,1-1,1H9c-0.6,0-1-0.4-1-1l0,0
		C8,62.4,8.4,62,9,62z"/>
</g>
<g>
	<path id="Rounded_Rectangle_14_3_" class="st3" d="M57.9,50h22.2c0.5,0,0.9,0.4,0.9,0.9v1c0,5-4.1,9.1-9.1,9.1c0,0,0,0,0,0h-5.8
		c-5,0-9.1-4.1-9.1-9.1l0,0v-1C57,50.4,57.4,50,57.9,50L57.9,50z"/>
	<rect x="58" y="53" class="st4" width="21" height="2"/>
	<path class="st2" d="M80.1,50h-0.1l-9.7-19h2.3c1.4,0,2.5-1.1,2.5-2.5S73.9,26,72.5,26H49.7c-0.3-0.6-1-1-1.7-1h-1.7l-0.2-4.2
		c1.7-0.5,2.9-2,2.9-3.8c0-2.2-1.8-4-4-4s-4,1.8-4,4c0,1.8,1.2,3.3,2.9,3.8L43.7,25H42c-0.7,0-1.4,0.4-1.7,1H17.5
		c-1.4,0-2.5,1.1-2.5,2.5s1.1,2.5,2.5,2.5h22.8c0.3,0.6,1,1,1.7,1h1.3l-2.1,37h-5.6c-1.4,0-2.5,1.1-2.5,2.5v0.6
		c-1.1,0.2-2,1.2-2,2.4V77h28v-2.5c0-1.2-0.9-2.2-2-2.4v-0.6c0-1.4-1.1-2.5-2.5-2.5h-5.6l-2.1-37H48c0.7,0,1.4-0.4,1.7-1h18.1
		l-9.7,19h-0.1c-0.5,0-0.9,0.4-0.9,0.9v1c0,5,4.1,9.1,9.1,9.1h5.8c5,0,9.1-4.1,9.1-9.1v-1C81,50.4,80.6,50,80.1,50z M40,29H17.5
		c-0.3,0-0.5-0.2-0.5-0.5s0.2-0.5,0.5-0.5H40V29z M43,17c0-1.1,0.9-2,2-2s2,0.9,2,2s-0.9,2-2,2S43,18.1,43,17z M56.5,74
		c0.3,0,0.5,0.2,0.5,0.5V75H33v-0.5c0-0.3,0.2-0.5,0.5-0.5H56.5z M49,71h5.5c0.3,0,0.5,0.2,0.5,0.5V72H35v-0.5
		c0-0.3,0.2-0.5,0.5-0.5H41H49z M46.9,69h-3.8L45,36.4L46.9,69z M48,30h-6v-3h6V30z M50,28h22.5c0.3,0,0.5,0.2,0.5,0.5
		S72.8,29,72.5,29H50V28z M69,33l8.7,17H60.3L69,33z M71.9,59h-5.8c-3.9,0-7-3.1-7.1-7h20C79,55.9,75.8,59,71.9,59z"/>
</g>
</svg>
