<?xml version="1.0" encoding="utf-8"?>
<!-- Generator: Adobe Illustrator 21.1.0, SVG Export Plug-In . SVG Version: 6.00 Build 0)  -->
<svg version="1.1" id="Layer_1" xmlns="http://www.w3.org/2000/svg" xmlns:xlink="http://www.w3.org/1999/xlink" x="0px" y="0px"
	 width="90px" height="90px" viewBox="0 0 90 90" style="enable-background:new 0 0 90 90;" xml:space="preserve">
<style type="text/css">
	.st0{opacity:0.5;fill:#212121;}
	.st1{fill:#FECC56;}
	.st2{fill:#CF9713;}
</style>
<path id="Rounded_Rectangle_7_1_" class="st0" d="M48,50v1h-4v-1H48 M50,48h-8v5h8V48L50,48z"/>
<path d="M89,53.8c-0.1-0.6-0.2-1.2-0.2-1.8c-2.4-0.3-3.3-1-3.7-3H80v-8.1c1.5-1.1,2-2.3,2-3.9V26c0-2.2-1.8-4-4-4H59v-3
	c0-3.3-2.7-6-6-6H39c-3.3,0-6,2.7-6,6v3H14c-2.2,0-4,1.8-4,4v11c0,1.4,0.9,2.7,2,3.6c0,0,0,0,0,0V67c0,2.2,1.8,4,4,4H71
	c1.5,1.7,3.1,3.1,4.9,4.4c0.2,0.2,0.5,0.4,0.9,0.5C76.9,76,76.9,76,77,76c0,0,0,0,0,0c0.1,0,0.2,0,0.2-0.1c1.2-0.8,2.4-1.8,3.5-2.7
	C86.4,68.4,89.4,61.2,89,53.8z M35,19c0-2.2,1.8-4,4-4h14c2.2,0,4,1.8,4,4v3h-1v-2c0-2.2-1.8-4-4-4H40c-2.2,0-4,1.8-4,4v2h-1V19z
	 M54,20v2H38v-2c0-1.1,0.9-2,2-2h12C53.1,18,54,18.9,54,20z M12,37V26c0-1.1,0.9-2,2-2h19h3h20h3h19c1.1,0,2,0.9,2,2v11
	c0,1.1-0.2,2-2.8,3.2c-8.6,3.5-21.4,8.6-24.2,9.7V47c0-1.1-0.9-2-2-2H41c-1.1,0-2,0.9-2,2v2.8c-0.1,0-0.2-0.1-0.3-0.1l-2.8-1.1
	c-2.4-0.9-5.5-2.2-8.6-3.4l-12.4-5C13.4,39.4,12,38.1,12,37z M51,47v7H41v-7H51z M14,67V42c0,0,23.5,9.3,25,10v2c0,1.1,0.9,2,2,2h10
	c1.1,0,2-0.9,2-2v-2H53C53.3,52,78,42,78,42v7h-8.8c-0.2,1.7-1.7,3-3.4,3c-0.1,0-0.2,0-0.3,0h-0.3c0,0.3-0.1,0.7-0.1,1
	c-0.2,2.4,0,4.9,0.6,7.3c0.6,3.1,1.9,6.1,3.8,8.7H16C14.9,69,14,68.1,14,67z M79.4,71.7c-0.8,0.7-1.7,1.4-2.5,2
	c-1.9-1.4-3.7-3-5.2-4.9c-2.1-2.6-3.5-5.6-4.1-8.8l0,0l0,0c-0.5-1.9-0.7-3.9-0.6-5.9c1.6-0.4,2.9-1.5,3.6-2.9h13
	c0.6,1.4,1.7,2.3,3.3,2.7c0,0.1,0,0.2,0.1,0.3C87.4,60.8,84.5,67.3,79.4,71.7z"/>
<g>
	<path id="Shape_14_copy_2_3_" class="st1" d="M84.8,55c-1.6-0.2-2.2-0.7-2.4-2H71.8c-0.1,1.2-1.2,2.1-2.4,2h-0.2
		c0,0.2-0.1,0.4-0.1,0.7c-0.1,1.6,0,3.3,0.4,4.8c0.5,2.4,1.5,4.6,3,6.5c1.1,1.4,2.4,2.6,3.8,3.6c0.2,0.2,0.4,0.3,0.6,0.3
		c0,0,0.1,0.1,0.2,0.1l0,0c0.1,0,0.1,0,0.1-0.1c0.8-0.6,1.6-1.2,2.3-1.8c3.8-3.2,5.8-8,5.5-12.9C84.9,55.8,84.8,55.4,84.8,55z"/>
	<path id="Shape_14_copy_2_1_" class="st2" d="M81,55c0.4,0.8,1.1,1.3,2,1.7c0.2,4.2-1.6,8.2-4.8,10.9c-0.4,0.3-0.8,0.7-1.3,1
		c-1.1-0.8-2.1-1.8-2.9-2.9c-1.3-1.6-2.2-3.6-2.6-5.6l0,0l0,0C71.1,59,71,57.9,71,56.8c0.9-0.3,1.7-1,2.2-1.8H81 M82.4,53H71.8
		c-0.1,1.2-1.1,2-2.3,2c-0.1,0-0.1,0-0.2,0h-0.2c0,0.2-0.1,0.4-0.1,0.7c-0.1,1.6,0,3.3,0.4,4.8c0.5,2.4,1.5,4.6,3,6.5
		c1.1,1.4,2.4,2.6,3.8,3.6c0.2,0.2,0.4,0.3,0.6,0.3c0,0,0.1,0.1,0.1,0.1c0,0,0,0,0,0c0.1,0,0.1,0,0.1-0.1c0.8-0.6,1.6-1.2,2.3-1.8
		c3.8-3.2,5.8-8,5.5-12.9c-0.1-0.4-0.1-0.8-0.2-1.2C83.2,54.9,82.6,54.4,82.4,53L82.4,53z"/>
</g>
</svg>
