<?xml version="1.0" encoding="utf-8"?>
<!-- Generator: Adobe Illustrator 21.1.0, SVG Export Plug-In . SVG Version: 6.00 Build 0)  -->
<svg version="1.1" id="Layer_1" xmlns="http://www.w3.org/2000/svg" xmlns:xlink="http://www.w3.org/1999/xlink" x="0px" y="0px"
	 width="90px" height="90px" viewBox="0 0 90 90" style="enable-background:new 0 0 90 90;" xml:space="preserve">
<style type="text/css">
	.st0{opacity:0.5;fill:#1E1F20;enable-background:new    ;}
	.st1{fill:#FFFFFF;}
	.st2{fill:#1E1F20;}
	.st3{opacity:0.5;fill:#212121;enable-background:new    ;}
	.st4{fill:#212121;}
	.st5{fill:#FDCB55;}
	.st6{fill:#CF9713;}
</style>
<g>
	<path id="Rounded_Rectangle_15_1_" class="st0" d="M70.1,20c1.1,0,2,0.9,2,2v51c0,1.1-0.9,2-2,2h-50c-1.1,0-2-0.9-2-2V22
		c0-1.1,0.9-2,2-2H70.1 M70.1,18h-50c-2.2,0-4,1.8-4,4v51c0,2.2,1.8,4,4,4h50c2.2,0,4-1.8,4-4V22C74.1,19.8,72.3,18,70.1,18L70.1,18
		z"/>
	<g>
		<path id="Rounded_Rectangle_15_copy_2_3_" class="st1" d="M22.1,16h46c1.1,0,2,0.9,2,2v53c0,1.1-0.9,2-2,2h-46c-1.1,0-2-0.9-2-2
			V18C20.1,16.9,21,16,22.1,16z"/>
		<path id="Rounded_Rectangle_15_copy_2_1_" class="st2" d="M68.1,18v53h-46V18H68.1 M68.1,16h-46c-1.1,0-2,0.9-2,2v53
			c0,1.1,0.9,2,2,2h46c1.1,0,2-0.9,2-2V18C70.1,16.9,69.2,16,68.1,16L68.1,16z"/>
	</g>
	<path class="st2" d="M30.1,37c-0.3,0-0.5-0.1-0.7-0.3l-3-3c-0.4-0.4-0.4-1,0-1.4s1-0.4,1.4,0l2.3,2.3l4.3-4.3c0.4-0.4,1-0.4,1.4,0
		s0.4,1,0,1.4l-5,5C30.6,36.9,30.4,37,30.1,37z"/>
	<path class="st2" d="M30.1,49c-0.3,0-0.5-0.1-0.7-0.3l-3-3c-0.4-0.4-0.4-1,0-1.4s1-0.4,1.4,0l2.3,2.3l4.3-4.3c0.4-0.4,1-0.4,1.4,0
		s0.4,1,0,1.4l-5,5C30.6,48.9,30.4,49,30.1,49z"/>
	<path id="Rounded_Rectangle_18" class="st3" d="M41.1,31h20c0.6,0,1,0.4,1,1l0,0c0,0.6-0.4,1-1,1h-20c-0.6,0-1-0.4-1-1l0,0
		C40.1,31.4,40.6,31,41.1,31z"/>
	<path id="Rounded_Rectangle_18_copy" class="st3" d="M41.1,35h20c0.6,0,1,0.4,1,1l0,0c0,0.6-0.4,1-1,1h-20c-0.6,0-1-0.4-1-1l0,0
		C40.1,35.4,40.6,35,41.1,35z"/>
	<path id="Rounded_Rectangle_18_copy_2" class="st3" d="M41.1,43h20c0.6,0,1,0.4,1,1l0,0c0,0.6-0.4,1-1,1h-20c-0.6,0-1-0.4-1-1l0,0
		C40.1,43.4,40.6,43,41.1,43z"/>
	<path id="Rounded_Rectangle_18_copy_2-2" class="st3" d="M41.1,47h20c0.6,0,1,0.4,1,1l0,0c0,0.6-0.4,1-1,1h-20c-0.6,0-1-0.4-1-1
		l0,0C40.1,47.4,40.6,47,41.1,47z"/>
	<path id="Rounded_Rectangle_18_copy_3" class="st3" d="M41.1,55h20c0.6,0,1,0.4,1,1l0,0c0,0.6-0.4,1-1,1h-20c-0.6,0-1-0.4-1-1l0,0
		C40.1,55.4,40.6,55,41.1,55z"/>
	<path id="Rounded_Rectangle_18_copy_3-2" class="st3" d="M41.1,59h20c0.6,0,1,0.4,1,1l0,0c0,0.6-0.4,1-1,1h-20c-0.6,0-1-0.4-1-1
		l0,0C40.1,59.4,40.6,59,41.1,59z"/>
	<path class="st2" d="M30.1,61c-0.3,0-0.5-0.1-0.7-0.3l-3-3c-0.4-0.4-0.4-1,0-1.4s1-0.4,1.4,0l2.3,2.3l4.3-4.3c0.4-0.4,1-0.4,1.4,0
		s0.4,1,0,1.4l-5,5C30.6,60.9,30.4,61,30.1,61z"/>
	<g>
		<path id="Rounded_Rectangle_16_3_" class="st1" d="M33.1,16h24c1.1,0,2,0.9,2,2v2c0,1.1-0.9,2-2,2h-24c-1.1,0-2-0.9-2-2v-2
			C31.1,16.9,32,16,33.1,16z"/>
		<path id="Rounded_Rectangle_16_1_" class="st2" d="M57.1,18v2h-24v-2H57.1 M57.1,16h-24c-1.1,0-2,0.9-2,2v2c0,1.1,0.9,2,2,2h24
			c1.1,0,2-0.9,2-2v-2C59.1,16.9,58.2,16,57.1,16L57.1,16z"/>
	</g>
	<path id="Rounded_Rectangle_16_copy_1_" class="st0" d="M57.1,15v5h-24v-5H57.1 M57.1,13h-24c-1.1,0-2,0.9-2,2v5c0,1.1,0.9,2,2,2
		h24c1.1,0,2-0.9,2-2v-5C59.1,13.9,58.2,13,57.1,13L57.1,13z"/>
</g>
<path class="st1" d="M82,44.7L79.3,42c-1.3-1.3-3-2-4.8-2c-1.8,0-3.5,0.7-4.8,2L67,44.7l-2.1,2.1l0.1,0.1l-11,11l-0.9,0.9V60v8v3h3
	h8h1.2l0.9-0.9l15-15l1.9-2.3C84.6,50.2,84.2,46.9,82,44.7z M74.9,43c-0.1,0-0.3,0-0.4,0c0,0,0,0,0,0C74.7,43,74.8,43,74.9,43z
	 M77.2,44.1c-0.2-0.2-0.4-0.3-0.6-0.5C76.8,43.8,77,43.9,77.2,44.1z M76.4,43.5c-0.1-0.1-0.3-0.2-0.4-0.2
	C76.1,43.3,76.2,43.4,76.4,43.5z M75.6,43.2c-0.1,0-0.3-0.1-0.4-0.1C75.4,43.1,75.5,43.2,75.6,43.2z M74.1,43c-0.1,0-0.2,0-0.3,0
	C73.9,43.1,74,43.1,74.1,43z M73.4,43.2c-0.1,0-0.2,0-0.3,0.1C73.2,43.2,73.3,43.2,73.4,43.2z M72.6,43.5c-0.1,0-0.2,0.1-0.2,0.1
	C72.5,43.6,72.6,43.6,72.6,43.5z"/>
<path class="st4" d="M79.9,46.8l-2.7-2.7c0,0,0,0,0,0c-0.7-0.7-1.7-1.1-2.7-1.1c-1,0-1.9,0.4-2.7,1.1l-2.7,2.7L56.1,60v2v6h6h2
	l15-15l0.8-0.8C81.4,50.7,81.4,48.3,79.9,46.8z M63.3,66h-3.2l-2-2v-3.2l12.5-12.5l5.2,5.2L63.3,66z M78.5,50.8l-0.8,0.8l-5.3-5.3
	l0.8-0.8c0.3-0.3,0.8-0.5,1.3-0.5c0.5,0,0.9,0.2,1.3,0.5l2.7,2.7C79.2,48.9,79.2,50.1,78.5,50.8z"/>
<g>
	<path class="st5" d="M56.1,60l8,8l14-14l1-1l-8-8L56.1,60z"/>
	<path class="st6" d="M62.1,65c-0.3,0-0.5-0.1-0.7-0.3c-0.4-0.4-0.4-1,0-1.4l13-13c0.4-0.4,1-0.4,1.4,0s0.4,1,0,1.4l-13,13
		C62.6,64.9,62.4,65,62.1,65z"/>
	<path class="st6" d="M60.1,63c-0.3,0-0.5-0.1-0.7-0.3c-0.4-0.4-0.4-1,0-1.4l13-13c0.4-0.4,1-0.4,1.4,0s0.4,1,0,1.4l-13,13
		C60.6,62.9,60.4,63,60.1,63z"/>
	<path class="st2" d="M71.1,47.8l5.2,5.2L64.1,65.2L59,60L71.1,47.8 M71.1,45l-15,15l8,8l14-14l1-1L71.1,45L71.1,45z"/>
</g>
</svg>
