<?xml version="1.0" encoding="utf-8"?>
<!-- Generator: Adobe Illustrator 21.1.0, SVG Export Plug-In . SVG Version: 6.00 Build 0)  -->
<svg version="1.1" id="Layer_1" xmlns="http://www.w3.org/2000/svg" xmlns:xlink="http://www.w3.org/1999/xlink" x="0px" y="0px"
	 width="24px" height="24px" viewBox="0 0 24 24" style="enable-background:new 0 0 24 24;" xml:space="preserve">
<style type="text/css">
	.st0{fill:#838383;}
</style>
<path class="st0" d="M22,17.4c0,0.1,0,0.1-0.1,0.1c0,0,0,0,0,0c-0.1,0.4-0.4,0.8-0.7,1.1c-0.4,0.3-0.8,0.4-1.3,0.4H4
	c-0.3,0-0.5,0-0.8-0.1c-0.2-0.1-0.5-0.2-0.7-0.4c-0.2-0.2-0.3-0.4-0.4-0.7C2,17.5,2,17.2,2,16.9V7.1c0-0.3,0-0.5,0.1-0.8
	c0.3-0.5,0.7-0.9,1.2-1.2C3.6,5,3.8,5,4.1,5h15.7c0.5,0,1,0.1,1.4,0.4c0.4,0.3,0.7,0.7,0.8,1.2l0,0V17.4L22,17.4z M20,8.2
	c-0.1,0.1-0.2,0.2-0.3,0.2c-2.3,2-4.5,4-6.8,6.1l-0.3,0.3c-0.3,0.1-0.5,0.1-0.8,0c-0.2,0-0.3-0.1-0.4-0.2C9,12.5,6.7,10.5,4.3,8.4
	C4.2,8.4,4.1,8.3,4,8.2V17h16L20,8.2L20,8.2z M12.2,12.6c2.1-1.9,4.1-3.7,6.2-5.6H5.7C7.9,8.9,10,10.7,12.2,12.6L12.2,12.6z"/>
</svg>
