<?xml version="1.0" encoding="utf-8"?>
<!-- Generator: Adobe Illustrator 21.1.0, SVG Export Plug-In . SVG Version: 6.00 Build 0)  -->
<svg version="1.1" id="Layer_1" xmlns="http://www.w3.org/2000/svg" xmlns:xlink="http://www.w3.org/1999/xlink" x="0px" y="0px"
	 width="53px" height="68px" viewBox="0 0 53 68" style="enable-background:new 0 0 53 68;" xml:space="preserve">
<style type="text/css">
	.st0{fill:#FFFFFF;}
	.st1{fill:#111111;}
</style>
<g>
	<path class="st0" d="M28,0H25c-0.2,0-0.4,0-0.5,0c-0.2,0-0.4,0.1-0.7,0.1c-0.4,0-0.9,0.1-1.4,0.2c-6.7,1-12.7,4.6-16.8,10
		C0.7,16.3-1.1,24.5,0.7,32c0,0,0,0,0,0.1c1.1,4.2,2.8,8.3,5.1,12c4.9,8.1,10.9,15.7,17.6,22.6c0.1,0.1,0.1,0.1,0.2,0.2
		c0.2,0.2,0.4,0.3,0.6,0.5c0.7,0.5,1.5,0.7,2.3,0.7c1,0,2-0.4,2.7-1.1l0.1-0.1c0.1-0.1,0.3-0.3,0.5-0.4c4.8-5,9.3-10.4,13.4-16.1
		c3.3-4.5,6-9.4,8-14.5c1.8-4.4,2.3-9.2,1.5-13.8c0,0,0-0.1,0-0.1c-2.2-10.7-9-18-19.5-21c-0.1,0-0.1,0-0.2,0
		C31.5,0.5,30,0.2,28.5,0C28.3,0,28.2,0,28,0L28,0z"/>
	<path class="st1" d="M28,4c1.3,0.2,2.7,0.4,4,0.7c9.2,2.6,14.7,8.6,16.7,18c0.7,3.9,0.3,7.9-1.2,11.6c-1.9,4.9-4.5,9.5-7.5,13.7
		c-3.9,5.6-8.3,10.8-13,15.7c-0.1,0.1-0.2,0.2-0.4,0.3c-0.1-0.1-0.2-0.1-0.2-0.2c-6.5-6.6-12.2-13.9-17-21.9
		c-2.1-3.4-3.7-7-4.7-10.9c-1.6-6.4,0-13.2,4.1-18.3c3.5-4.6,8.6-7.6,14.3-8.5c0.7-0.1,1.3-0.2,2-0.3H28z"/>
</g>
<circle class="st0" cx="26.5" cy="26.5" r="7.5"/>
</svg>
