<?xml version="1.0" encoding="utf-8"?>
<!-- Generator: Adobe Illustrator 21.1.0, SVG Export Plug-In . SVG Version: 6.00 Build 0)  -->
<svg version="1.1" id="Layer_1" xmlns="http://www.w3.org/2000/svg" xmlns:xlink="http://www.w3.org/1999/xlink" x="0px" y="0px"
	 width="24px" height="24px" viewBox="0 0 24 24" style="enable-background:new 0 0 24 24;" xml:space="preserve">
<style type="text/css">
	.st0{fill:#838383;}
</style>
<path class="st0" d="M12,24c-0.2,0-0.4-0.1-0.6-0.2c-0.1,0-0.1-0.1-0.2-0.1c0,0-0.1-0.1-0.1-0.1c-2.4-2.5-4.5-5.2-6.2-8.2
	c-0.8-1.3-1.4-2.7-1.8-4.2c-0.6-2.7,0-5.4,1.6-7.6c1.3-1.8,3.4-3.1,5.7-3.5c0.2,0,0.5-0.1,0.7-0.1c0,0,0.1,0,0.2,0h1.1
	c0.1,0,0.1,0,0.2,0c0.5,0.1,1,0.2,1.5,0.3c3.5,0.9,6.1,3.8,6.7,7.4c0.3,1.6,0.1,3.2-0.5,4.8c-0.7,1.8-1.7,3.6-2.8,5.2
	c-1.4,2.1-3,4-4.7,5.9c-0.1,0.1-0.1,0.1-0.2,0.2C12.5,23.9,12.2,24,12,24z M11.5,2c-0.2,0-0.4,0.1-0.6,0.1C9.1,2.4,7.5,3.3,6.5,4.8
	c-1.3,1.7-1.8,3.8-1.3,5.9C5.5,12,6,13.2,6.7,14.4c1.5,2.6,3.3,5,5.3,7.2c1.4-1.6,2.7-3.2,3.9-5c1.1-1.5,1.9-3.1,2.6-4.8
	c0.5-1.2,0.6-2.5,0.4-3.7c-0.4-2.8-2.4-5.1-5.2-5.8C13.3,2.1,12.9,2,12.5,2H11.5z"/>
<path class="st0" d="M12,13c-2.2,0-4-1.8-4-4s1.8-4,4-4c2.2,0,4,1.8,4,4S14.2,13,12,13z M12,7c-1.1,0-2,0.9-2,2s0.9,2,2,2
	c1.1,0,2-0.9,2-2S13.1,7,12,7z"/>
</svg>
